<svg width="35" height="38" viewBox="0 0 35 38" fill="none" xmlns="http://www.w3.org/2000/svg">
<g filter="url(#filter0_dddddddd_2212_139)">
<path d="M17.3591 11.2393L18.3188 14.5253H21.4247L18.912 16.5561L19.8717 19.8421L17.3591 17.8113L14.8464 19.8421L15.8061 16.5561L13.2935 14.5253H16.3993L17.3591 11.2393Z" fill="#FF0000"/>
<mask id="path-2-inside-1_2212_139" fill="white">
<path d="M28.5413 10.2094C26.163 5.59941 17.9944 0 17.9944 0L23.8524 14.5621L24.4586 29.9767L28.4773 29.9935L30.0854 14.5881C30.0854 14.5881 30.0389 13.1123 28.5413 10.2094Z"/>
</mask>
<path d="M28.5413 10.2094C26.163 5.59941 17.9944 0 17.9944 0L23.8524 14.5621L24.4586 29.9767L28.4773 29.9935L30.0854 14.5881C30.0854 14.5881 30.0389 13.1123 28.5413 10.2094Z" fill="#FF0000"/>
<path d="M17.9944 0L40.5891 -32.9862L-68.4419 -107.725L-19.1134 14.8987L17.9944 0ZM28.5413 10.2094L-7.00291 28.5229L-7.00291 28.5229L28.5413 10.2094ZM30.0854 14.5881L69.8692 18.7778L70.1509 16.0785L70.0654 13.3654L30.0854 14.5881ZM28.4773 29.9935L28.3479 69.9933L64.5072 70.1441L68.261 34.1832L28.4773 29.9935ZM24.4586 29.9767L-15.5103 31.5114L-14.0038 69.8167L24.3292 69.9765L24.4586 29.9767ZM23.8524 14.5621L63.8213 13.0274L63.5488 6.09851L60.9601 -0.336578L23.8524 14.5621ZM17.9944 0C-4.60037 32.9862 -4.60435 32.9834 -4.6083 32.9807C-4.60957 32.9798 -4.6135 32.9772 -4.61606 32.9754C-4.62118 32.9719 -4.62619 32.9684 -4.63109 32.9651C-4.6409 32.9583 -4.65027 32.9519 -4.65923 32.9457C-4.67713 32.9334 -4.69336 32.9222 -4.70794 32.9121C-4.7371 32.892 -4.75981 32.8762 -4.77644 32.8646C-4.80954 32.8415 -4.81917 32.8346 -4.80824 32.8423C-4.78469 32.8591 -4.68741 32.9286 -4.53812 33.0396C-4.21159 33.2824 -3.79763 33.6036 -3.41882 33.9236C-2.978 34.2959 -2.97289 34.3395 -3.27489 34.0174C-3.28719 34.0043 -5.15535 32.1041 -7.00291 28.5229L64.0855 -8.10408C58.8814 -18.1913 50.5128 -25.1934 48.1707 -27.1717C46.2101 -28.8278 44.4333 -30.1945 43.1539 -31.1457C42.5002 -31.6317 41.9407 -32.0356 41.5083 -32.3431C41.2912 -32.4975 41.1038 -32.6292 40.9498 -32.7366C40.8728 -32.7903 40.8039 -32.8381 40.7437 -32.8797C40.7136 -32.9005 40.6856 -32.9198 40.6599 -32.9376C40.647 -32.9464 40.6346 -32.9549 40.6228 -32.963C40.6169 -32.9671 40.6112 -32.971 40.6056 -32.9749C40.6028 -32.9768 40.5987 -32.9796 40.5973 -32.9806C40.5932 -32.9834 40.5891 -32.9862 17.9944 0ZM-7.00291 28.5229C-7.44851 27.6592 -8.13071 26.1282 -8.72486 23.9414C-9.02079 22.8522 -9.28923 21.6207 -9.49598 20.2525C-9.59917 19.5696 -9.68638 18.8567 -9.75406 18.1145C-9.78787 17.7437 -9.81676 17.3661 -9.84032 16.9819C-9.8521 16.7898 -9.86254 16.5962 -9.8716 16.4009C-9.87613 16.3033 -9.88031 16.2054 -9.88415 16.107C-9.88606 16.0578 -9.88789 16.0085 -9.88963 15.9592C-9.8905 15.9345 -9.89135 15.9098 -9.89217 15.885C-9.89259 15.8727 -9.89319 15.8541 -9.8934 15.8479C-9.89399 15.8293 -9.89458 15.8108 30.0854 14.5881C70.0654 13.3654 70.0648 13.3468 70.0643 13.3282C70.064 13.322 70.0634 13.3034 70.063 13.291C70.0622 13.2662 70.0613 13.2413 70.0605 13.2165C70.0587 13.1668 70.0569 13.1169 70.0549 13.067C70.051 12.9672 70.0468 12.8671 70.0421 12.7666C70.0328 12.5656 70.0219 12.3633 70.0094 12.1597C69.9844 11.7525 69.9531 11.3404 69.9151 10.9235C69.839 10.0893 69.7365 9.2384 69.6055 8.3718C69.3432 6.6361 68.9696 4.85425 68.4748 3.03324C67.483 -0.617215 66.0287 -4.33751 64.0855 -8.10409L-7.00291 28.5229ZM-9.69831 10.3983L-11.3064 25.8038L68.261 34.1832L69.8692 18.7778L-9.69831 10.3983ZM28.6067 -10.0063L24.588 -10.0231L24.3292 69.9765L28.3479 69.9933L28.6067 -10.0063ZM64.4276 28.4421L63.8213 13.0274L-16.1166 16.0968L-15.5103 31.5114L64.4276 28.4421ZM60.9601 -0.336578L55.1022 -14.8987L-19.1134 14.8987L-13.2554 29.4608L60.9601 -0.336578Z" fill="url(#paint0_linear_2212_139)" mask="url(#path-2-inside-1_2212_139)"/>
<mask id="path-4-inside-2_2212_139" fill="white">
<path d="M5.59151 10.2094C7.96986 5.59941 16.1384 0 16.1384 0L10.2804 14.5621L9.67419 29.9767L5.65551 29.9935L4.04738 14.5881C4.04738 14.5881 4.0939 13.1123 5.59151 10.2094Z"/>
</mask>
<path d="M5.59151 10.2094C7.96986 5.59941 16.1384 0 16.1384 0L10.2804 14.5621L9.67419 29.9767L5.65551 29.9935L4.04738 14.5881C4.04738 14.5881 4.0939 13.1123 5.59151 10.2094Z" fill="#FF0000"/>
<path d="M16.1384 0L-6.45633 -32.9862L102.575 -107.725L53.2462 14.8987L16.1384 0ZM5.59151 10.2094L41.1357 28.5229L41.1357 28.5229L5.59151 10.2094ZM4.04738 14.5881L-35.7364 18.7778L-36.0181 16.0785L-35.9326 13.3654L4.04738 14.5881ZM5.65551 29.9935L5.7849 69.9933L-30.3744 70.1441L-34.1282 34.1832L5.65551 29.9935ZM9.67419 29.9767L49.6432 31.5114L48.1366 69.8167L9.80359 69.9765L9.67419 29.9767ZM10.2804 14.5621L-29.6885 13.0274L-29.416 6.09851L-26.8273 -0.336578L10.2804 14.5621ZM16.1384 0C38.7332 32.9862 38.7372 32.9834 38.7411 32.9807C38.7424 32.9798 38.7463 32.9772 38.7489 32.9754C38.754 32.9719 38.759 32.9684 38.7639 32.9651C38.7737 32.9583 38.7831 32.9519 38.792 32.9457C38.8099 32.9334 38.8262 32.9222 38.8408 32.9121C38.8699 32.892 38.8926 32.8762 38.9092 32.8646C38.9424 32.8415 38.952 32.8346 38.9411 32.8423C38.9175 32.8591 38.8202 32.9286 38.6709 33.0396C38.3444 33.2824 37.9304 33.6036 37.5516 33.9236C37.1108 34.2959 37.1057 34.3395 37.4077 34.0174C37.42 34.0043 39.2882 32.1041 41.1357 28.5229L-29.9527 -8.10408C-24.7486 -18.1913 -16.38 -25.1934 -14.0379 -27.1717C-12.0773 -28.8278 -10.3005 -30.1945 -9.02108 -31.1457C-8.3674 -31.6317 -7.80793 -32.0356 -7.37547 -32.3431C-7.1584 -32.4975 -6.97095 -32.6292 -6.81703 -32.7366C-6.73999 -32.7903 -6.67112 -32.8381 -6.61091 -32.8797C-6.5808 -32.9005 -6.55282 -32.9198 -6.52704 -32.9376C-6.51416 -32.9464 -6.50181 -32.9549 -6.49003 -32.963C-6.48413 -32.9671 -6.47838 -32.971 -6.47276 -32.9749C-6.46996 -32.9768 -6.46584 -32.9796 -6.46444 -32.9806C-6.46037 -32.9834 -6.45633 -32.9862 16.1384 0ZM41.1357 28.5229C41.5813 27.6592 42.2635 26.1282 42.8577 23.9414C43.1536 22.8522 43.422 21.6207 43.6288 20.2525C43.732 19.5696 43.8192 18.8567 43.8869 18.1145C43.9207 17.7437 43.9496 17.3661 43.9731 16.9819C43.9849 16.7898 43.9954 16.5962 44.0044 16.4009C44.0089 16.3033 44.0131 16.2054 44.017 16.107C44.0189 16.0578 44.0207 16.0085 44.0224 15.9592C44.0233 15.9345 44.0242 15.9098 44.025 15.885C44.0254 15.8727 44.026 15.8541 44.0262 15.8479C44.0268 15.8293 44.0274 15.8108 4.04738 14.5881C-35.9326 13.3654 -35.932 13.3468 -35.9314 13.3282C-35.9312 13.322 -35.9306 13.3034 -35.9302 13.291C-35.9294 13.2662 -35.9285 13.2413 -35.9277 13.2165C-35.9259 13.1668 -35.9241 13.1169 -35.9221 13.067C-35.9182 12.9672 -35.9139 12.8671 -35.9093 12.7666C-35.9 12.5656 -35.8891 12.3633 -35.8766 12.1597C-35.8516 11.7525 -35.8203 11.3404 -35.7823 10.9235C-35.7062 10.0893 -35.6036 9.2384 -35.4727 8.3718C-35.2104 6.6361 -34.8367 4.85425 -34.342 3.03324C-33.3502 -0.617215 -31.8959 -4.33751 -29.9527 -8.10409L41.1357 28.5229ZM43.8311 10.3983L45.4392 25.8038L-34.1282 34.1832L-35.7364 18.7778L43.8311 10.3983ZM5.52611 -10.0063L9.5448 -10.0231L9.80359 69.9765L5.7849 69.9933L5.52611 -10.0063ZM-30.2948 28.4421L-29.6885 13.0274L50.2494 16.0968L49.6432 31.5114L-30.2948 28.4421ZM-26.8273 -0.336578L-20.9693 -14.8987L53.2462 14.8987L47.3882 29.4608L-26.8273 -0.336578Z" fill="url(#paint1_linear_2212_139)" mask="url(#path-4-inside-2_2212_139)"/>
</g>
<defs>
<filter id="filter0_dddddddd_2212_139" x="0.0473633" y="0" width="34.0381" height="37.9937" filterUnits="userSpaceOnUse" color-interpolation-filters="sRGB">
<feFlood flood-opacity="0" result="BackgroundImageFix"/>
<feColorMatrix in="SourceAlpha" type="matrix" values="0 0 0 0 0 0 0 0 0 0 0 0 0 0 0 0 0 0 127 0" result="hardAlpha"/>
<feOffset dy="4"/>
<feGaussianBlur stdDeviation="2"/>
<feComposite in2="hardAlpha" operator="out"/>
<feColorMatrix type="matrix" values="0 0 0 0 0 0 0 0 0 0 0 0 0 0 0 0 0 0 0.25 0"/>
<feBlend mode="normal" in2="BackgroundImageFix" result="effect1_dropShadow_2212_139"/>
<feColorMatrix in="SourceAlpha" type="matrix" values="0 0 0 0 0 0 0 0 0 0 0 0 0 0 0 0 0 0 127 0" result="hardAlpha"/>
<feOffset dy="4"/>
<feGaussianBlur stdDeviation="2"/>
<feComposite in2="hardAlpha" operator="out"/>
<feColorMatrix type="matrix" values="0 0 0 0 0 0 0 0 0 0 0 0 0 0 0 0 0 0 0.25 0"/>
<feBlend mode="normal" in2="effect1_dropShadow_2212_139" result="effect2_dropShadow_2212_139"/>
<feColorMatrix in="SourceAlpha" type="matrix" values="0 0 0 0 0 0 0 0 0 0 0 0 0 0 0 0 0 0 127 0" result="hardAlpha"/>
<feOffset dy="4"/>
<feGaussianBlur stdDeviation="2"/>
<feComposite in2="hardAlpha" operator="out"/>
<feColorMatrix type="matrix" values="0 0 0 0 0 0 0 0 0 0 0 0 0 0 0 0 0 0 0.25 0"/>
<feBlend mode="normal" in2="effect2_dropShadow_2212_139" result="effect3_dropShadow_2212_139"/>
<feColorMatrix in="SourceAlpha" type="matrix" values="0 0 0 0 0 0 0 0 0 0 0 0 0 0 0 0 0 0 127 0" result="hardAlpha"/>
<feOffset dy="4"/>
<feGaussianBlur stdDeviation="2"/>
<feComposite in2="hardAlpha" operator="out"/>
<feColorMatrix type="matrix" values="0 0 0 0 0 0 0 0 0 0 0 0 0 0 0 0 0 0 0.25 0"/>
<feBlend mode="normal" in2="effect3_dropShadow_2212_139" result="effect4_dropShadow_2212_139"/>
<feColorMatrix in="SourceAlpha" type="matrix" values="0 0 0 0 0 0 0 0 0 0 0 0 0 0 0 0 0 0 127 0" result="hardAlpha"/>
<feOffset dy="4"/>
<feGaussianBlur stdDeviation="2"/>
<feComposite in2="hardAlpha" operator="out"/>
<feColorMatrix type="matrix" values="0 0 0 0 0 0 0 0 0 0 0 0 0 0 0 0 0 0 0.25 0"/>
<feBlend mode="normal" in2="effect4_dropShadow_2212_139" result="effect5_dropShadow_2212_139"/>
<feColorMatrix in="SourceAlpha" type="matrix" values="0 0 0 0 0 0 0 0 0 0 0 0 0 0 0 0 0 0 127 0" result="hardAlpha"/>
<feOffset dy="4"/>
<feGaussianBlur stdDeviation="2"/>
<feComposite in2="hardAlpha" operator="out"/>
<feColorMatrix type="matrix" values="0 0 0 0 0 0 0 0 0 0 0 0 0 0 0 0 0 0 0.25 0"/>
<feBlend mode="normal" in2="effect5_dropShadow_2212_139" result="effect6_dropShadow_2212_139"/>
<feColorMatrix in="SourceAlpha" type="matrix" values="0 0 0 0 0 0 0 0 0 0 0 0 0 0 0 0 0 0 127 0" result="hardAlpha"/>
<feOffset dy="4"/>
<feGaussianBlur stdDeviation="2"/>
<feComposite in2="hardAlpha" operator="out"/>
<feColorMatrix type="matrix" values="0 0 0 0 0 0 0 0 0 0 0 0 0 0 0 0 0 0 0.25 0"/>
<feBlend mode="normal" in2="effect6_dropShadow_2212_139" result="effect7_dropShadow_2212_139"/>
<feColorMatrix in="SourceAlpha" type="matrix" values="0 0 0 0 0 0 0 0 0 0 0 0 0 0 0 0 0 0 127 0" result="hardAlpha"/>
<feOffset dy="4"/>
<feGaussianBlur stdDeviation="2"/>
<feComposite in2="hardAlpha" operator="out"/>
<feColorMatrix type="matrix" values="0 0 0 0 0 0 0 0 0 0 0 0 0 0 0 0 0 0 0.25 0"/>
<feBlend mode="normal" in2="effect7_dropShadow_2212_139" result="effect8_dropShadow_2212_139"/>
<feBlend mode="normal" in="SourceGraphic" in2="effect8_dropShadow_2212_139" result="shape"/>
</filter>
<linearGradient id="paint0_linear_2212_139" x1="24.0634" y1="0.0253069" x2="23.9385" y2="29.9746" gradientUnits="userSpaceOnUse">
<stop/>
<stop offset="1" stop-color="#7A7A7A"/>
</linearGradient>
<linearGradient id="paint1_linear_2212_139" x1="10.0694" y1="0.0253069" x2="10.1943" y2="29.9746" gradientUnits="userSpaceOnUse">
<stop/>
<stop offset="1" stop-color="#7A7A7A"/>
</linearGradient>
</defs>
</svg>
