<svg width="91" height="103" viewBox="0 0 91 103" fill="none" xmlns="http://www.w3.org/2000/svg">
<g filter="url(#filter0_dddddddd_2212_139)">
<path d="M46.2129 35.5908L49.2457 45.9965H59.0601L51.1201 52.4276L54.1529 62.8333L46.2129 56.4022L38.2729 62.8333L41.3057 52.4276L33.3657 45.9965H43.1801L46.2129 35.5908Z" fill="#FF0000"/>
<mask id="path-2-inside-1_2212_139" fill="white">
<path d="M81.5486 32.3298C74.0331 17.7315 48.2207 0 48.2207 0L66.7317 46.1133L68.6474 94.9264L81.3463 94.9794L86.4279 46.1956C86.4279 46.1956 86.281 41.5222 81.5486 32.3298Z"/>
</mask>
<path d="M81.5486 32.3298C74.0331 17.7315 48.2207 0 48.2207 0L66.7317 46.1133L68.6474 94.9264L81.3463 94.9794L86.4279 46.1956C86.4279 46.1956 86.281 41.5222 81.5486 32.3298Z" fill="#FF0000"/>
<path d="M48.2207 0L70.8478 -32.9636L-38.1588 -107.844L11.102 14.8709L48.2207 0ZM81.5486 32.3298L117.109 14.0475L117.109 14.0475L81.5486 32.3298ZM86.4279 46.1956L126.213 50.3773L126.493 47.6836L126.408 44.9762L86.4279 46.1956ZM81.3463 94.9794L81.2172 134.979L117.384 135.13L121.131 99.1611L81.3463 94.9794ZM68.6474 94.9264L28.6784 96.4571L30.1818 134.766L68.5183 134.926L68.6474 94.9264ZM66.7317 46.1133L106.701 44.5826L106.429 37.667L103.85 31.2424L66.7317 46.1133ZM48.2207 0C25.5936 32.9636 25.5897 32.961 25.5859 32.9583C25.5848 32.9575 25.5811 32.955 25.5788 32.9534C25.5742 32.9503 25.57 32.9474 25.5661 32.9447C25.5585 32.9394 25.5523 32.9352 25.5476 32.9319C25.5382 32.9255 25.5347 32.923 25.5368 32.9245C25.5412 32.9275 25.5684 32.9464 25.617 32.9803C25.7143 33.0484 25.8967 33.1765 26.1539 33.3598C26.6699 33.7274 27.4765 34.3096 28.493 35.0669C30.5539 36.6024 33.3341 38.7513 36.2399 41.211C39.2074 43.723 41.9007 46.218 43.9769 48.4365C46.3414 50.9633 46.5454 51.6938 45.9886 50.6122L117.109 14.0475C109.345 -1.03198 95.2918 -13.5667 87.8928 -19.8299C83.406 -23.6279 79.2634 -26.8243 76.2496 -29.0696C74.7288 -30.2027 73.46 -31.1199 72.5351 -31.7789C72.0718 -32.1091 71.6923 -32.3761 71.4079 -32.5749C71.2656 -32.6744 71.1469 -32.7569 71.0531 -32.8219C71.0062 -32.8544 70.9656 -32.8825 70.9313 -32.9061C70.9142 -32.918 70.8986 -32.9287 70.8847 -32.9383C70.8777 -32.943 70.8712 -32.9476 70.865 -32.9518C70.8619 -32.9539 70.8576 -32.9569 70.8561 -32.9579C70.8519 -32.9608 70.8478 -32.9636 48.2207 0ZM45.9886 50.6122C47.1638 52.8949 47.3192 53.739 47.1575 53.1427C47.0778 52.8487 46.9243 52.2163 46.7784 51.2491C46.7057 50.7668 46.6354 50.2049 46.5771 49.5641C46.548 49.2439 46.5219 48.9046 46.5 48.5462C46.489 48.367 46.4791 48.1831 46.4703 47.9946C46.466 47.9003 46.4619 47.8048 46.4582 47.7082C46.4563 47.6599 46.4545 47.6114 46.4528 47.5625C46.4519 47.5381 46.4511 47.5135 46.4502 47.489C46.4498 47.4767 46.4492 47.4582 46.449 47.452C46.4484 47.4335 46.4478 47.415 86.4279 46.1956C126.408 44.9762 126.407 44.9577 126.407 44.9391C126.407 44.9329 126.406 44.9143 126.406 44.9019C126.405 44.877 126.404 44.8521 126.403 44.827C126.401 44.777 126.399 44.7267 126.397 44.6762C126.394 44.575 126.389 44.4727 126.384 44.3693C126.375 44.1625 126.364 43.9513 126.35 43.7356C126.324 43.3043 126.29 42.8555 126.248 42.3896C126.163 41.4573 126.044 40.4585 125.884 39.3944C125.562 37.2637 125.076 34.8884 124.368 32.277C122.95 27.0459 120.666 20.9571 117.109 14.0475L45.9886 50.6122ZM46.6433 42.014L41.5617 90.7978L121.131 99.1611L126.213 50.3773L46.6433 42.014ZM81.4755 54.9796L68.7766 54.9266L68.5183 134.926L81.2172 134.979L81.4755 54.9796ZM108.617 93.3956L106.701 44.5826L26.7626 47.6441L28.6784 96.4571L108.617 93.3956ZM103.85 31.2424L85.3394 -14.8709L11.102 14.8709L29.613 60.9843L103.85 31.2424Z" fill="url(#paint0_linear_2212_139)" mask="url(#path-2-inside-1_2212_139)"/>
<mask id="path-4-inside-2_2212_139" fill="white">
<path d="M9.02809 32.3298C16.5436 17.7315 42.356 0 42.356 0L23.845 46.1133L21.9292 94.9264L9.23033 94.9794L4.14872 46.1956C4.14872 46.1956 4.2957 41.5222 9.02809 32.3298Z"/>
</mask>
<path d="M9.02809 32.3298C16.5436 17.7315 42.356 0 42.356 0L23.845 46.1133L21.9292 94.9264L9.23033 94.9794L4.14872 46.1956C4.14872 46.1956 4.2957 41.5222 9.02809 32.3298Z" fill="#FF0000"/>
<path d="M42.356 0L19.7289 -32.9636L128.735 -107.844L79.4746 14.8709L42.356 0ZM9.02809 32.3298L-26.5319 14.0475L-26.5319 14.0475L9.02809 32.3298ZM4.14872 46.1956L-35.6359 50.3773L-35.9165 47.6836L-35.8314 44.9762L4.14872 46.1956ZM9.23033 94.9794L9.35945 134.979L-26.8075 135.13L-30.5543 99.1611L9.23033 94.9794ZM21.9292 94.9264L61.8983 96.4571L60.3948 134.766L22.0583 134.926L21.9292 94.9264ZM23.845 46.1133L-16.1241 44.5826L-15.8527 37.667L-13.2737 31.2424L23.845 46.1133ZM42.356 0C64.983 32.9636 64.9869 32.961 64.9907 32.9583C64.9919 32.9575 64.9956 32.955 64.9979 32.9534C65.0025 32.9503 65.0067 32.9474 65.0105 32.9447C65.0182 32.9394 65.0244 32.9352 65.0291 32.9319C65.0385 32.9255 65.042 32.923 65.0398 32.9245C65.0354 32.9275 65.0083 32.9464 64.9597 32.9803C64.8623 33.0484 64.6799 33.1765 64.4227 33.3598C63.9067 33.7274 63.1001 34.3096 62.0836 35.0669C60.0227 36.6024 57.2425 38.7513 54.3368 41.211C51.3692 43.723 48.6759 46.218 46.5998 48.4365C44.2352 50.9633 44.0312 51.6938 44.5881 50.6122L-26.5319 14.0475C-18.7687 -1.03198 -4.71517 -13.5667 2.68387 -19.8299C7.17068 -23.6279 11.3133 -26.8243 14.3271 -29.0696C15.8479 -30.2027 17.1166 -31.1199 18.0416 -31.7789C18.5049 -32.1091 18.8844 -32.3761 19.1688 -32.5749C19.3111 -32.6744 19.4298 -32.7569 19.5235 -32.8219C19.5704 -32.8544 19.6111 -32.8825 19.6454 -32.9061C19.6625 -32.918 19.6781 -32.9287 19.692 -32.9383C19.6989 -32.943 19.7055 -32.9476 19.7117 -32.9518C19.7147 -32.9539 19.719 -32.9569 19.7206 -32.9579C19.7248 -32.9608 19.7289 -32.9636 42.356 0ZM44.5881 50.6122C43.4129 52.8949 43.2575 53.739 43.4192 53.1427C43.4989 52.8487 43.6524 52.2163 43.7982 51.2491C43.871 50.7668 43.9412 50.2049 43.9995 49.5641C44.0287 49.2439 44.0548 48.9046 44.0767 48.5462C44.0877 48.367 44.0976 48.1831 44.1063 47.9946C44.1107 47.9003 44.1148 47.8048 44.1185 47.7082C44.1204 47.6599 44.1222 47.6114 44.1239 47.5625C44.1248 47.5381 44.1256 47.5135 44.1264 47.489C44.1268 47.4767 44.1274 47.4582 44.1276 47.452C44.1282 47.4335 44.1288 47.415 4.14872 46.1956C-35.8314 44.9762 -35.8308 44.9577 -35.8302 44.9391C-35.83 44.9329 -35.8294 44.9143 -35.829 44.9019C-35.8281 44.877 -35.8273 44.8521 -35.8264 44.827C-35.8246 44.777 -35.8228 44.7267 -35.8208 44.6762C-35.8169 44.575 -35.8125 44.4727 -35.8077 44.3693C-35.7982 44.1625 -35.7868 43.9513 -35.7736 43.7356C-35.7472 43.3043 -35.7134 42.8555 -35.671 42.3896C-35.5861 41.4573 -35.4674 40.4585 -35.307 39.3944C-34.9857 37.2637 -34.4997 34.8884 -33.7917 32.277C-32.3734 27.0459 -30.0891 20.9571 -26.5319 14.0475L44.5881 50.6122ZM43.9334 42.014L49.015 90.7978L-30.5543 99.1611L-35.6359 50.3773L43.9334 42.014ZM9.1012 54.9796L21.8001 54.9266L22.0583 134.926L9.35945 134.979L9.1012 54.9796ZM-18.0399 93.3956L-16.1241 44.5826L63.8141 47.6441L61.8983 96.4571L-18.0399 93.3956ZM-13.2737 31.2424L5.23728 -14.8709L79.4746 14.8709L60.9636 60.9843L-13.2737 31.2424Z" fill="url(#paint1_linear_2212_139)" mask="url(#path-4-inside-2_2212_139)"/>
</g>
<defs>
<filter id="filter0_dddddddd_2212_139" x="0.148682" y="0" width="90.2793" height="102.979" filterUnits="userSpaceOnUse" color-interpolation-filters="sRGB">
<feFlood flood-opacity="0" result="BackgroundImageFix"/>
<feColorMatrix in="SourceAlpha" type="matrix" values="0 0 0 0 0 0 0 0 0 0 0 0 0 0 0 0 0 0 127 0" result="hardAlpha"/>
<feOffset dy="4"/>
<feGaussianBlur stdDeviation="2"/>
<feComposite in2="hardAlpha" operator="out"/>
<feColorMatrix type="matrix" values="0 0 0 0 0 0 0 0 0 0 0 0 0 0 0 0 0 0 0.25 0"/>
<feBlend mode="normal" in2="BackgroundImageFix" result="effect1_dropShadow_2212_139"/>
<feColorMatrix in="SourceAlpha" type="matrix" values="0 0 0 0 0 0 0 0 0 0 0 0 0 0 0 0 0 0 127 0" result="hardAlpha"/>
<feOffset dy="4"/>
<feGaussianBlur stdDeviation="2"/>
<feComposite in2="hardAlpha" operator="out"/>
<feColorMatrix type="matrix" values="0 0 0 0 0 0 0 0 0 0 0 0 0 0 0 0 0 0 0.25 0"/>
<feBlend mode="normal" in2="effect1_dropShadow_2212_139" result="effect2_dropShadow_2212_139"/>
<feColorMatrix in="SourceAlpha" type="matrix" values="0 0 0 0 0 0 0 0 0 0 0 0 0 0 0 0 0 0 127 0" result="hardAlpha"/>
<feOffset dy="4"/>
<feGaussianBlur stdDeviation="2"/>
<feComposite in2="hardAlpha" operator="out"/>
<feColorMatrix type="matrix" values="0 0 0 0 0 0 0 0 0 0 0 0 0 0 0 0 0 0 0.25 0"/>
<feBlend mode="normal" in2="effect2_dropShadow_2212_139" result="effect3_dropShadow_2212_139"/>
<feColorMatrix in="SourceAlpha" type="matrix" values="0 0 0 0 0 0 0 0 0 0 0 0 0 0 0 0 0 0 127 0" result="hardAlpha"/>
<feOffset dy="4"/>
<feGaussianBlur stdDeviation="2"/>
<feComposite in2="hardAlpha" operator="out"/>
<feColorMatrix type="matrix" values="0 0 0 0 0 0 0 0 0 0 0 0 0 0 0 0 0 0 0.25 0"/>
<feBlend mode="normal" in2="effect3_dropShadow_2212_139" result="effect4_dropShadow_2212_139"/>
<feColorMatrix in="SourceAlpha" type="matrix" values="0 0 0 0 0 0 0 0 0 0 0 0 0 0 0 0 0 0 127 0" result="hardAlpha"/>
<feOffset dy="4"/>
<feGaussianBlur stdDeviation="2"/>
<feComposite in2="hardAlpha" operator="out"/>
<feColorMatrix type="matrix" values="0 0 0 0 0 0 0 0 0 0 0 0 0 0 0 0 0 0 0.25 0"/>
<feBlend mode="normal" in2="effect4_dropShadow_2212_139" result="effect5_dropShadow_2212_139"/>
<feColorMatrix in="SourceAlpha" type="matrix" values="0 0 0 0 0 0 0 0 0 0 0 0 0 0 0 0 0 0 127 0" result="hardAlpha"/>
<feOffset dy="4"/>
<feGaussianBlur stdDeviation="2"/>
<feComposite in2="hardAlpha" operator="out"/>
<feColorMatrix type="matrix" values="0 0 0 0 0 0 0 0 0 0 0 0 0 0 0 0 0 0 0.25 0"/>
<feBlend mode="normal" in2="effect5_dropShadow_2212_139" result="effect6_dropShadow_2212_139"/>
<feColorMatrix in="SourceAlpha" type="matrix" values="0 0 0 0 0 0 0 0 0 0 0 0 0 0 0 0 0 0 127 0" result="hardAlpha"/>
<feOffset dy="4"/>
<feGaussianBlur stdDeviation="2"/>
<feComposite in2="hardAlpha" operator="out"/>
<feColorMatrix type="matrix" values="0 0 0 0 0 0 0 0 0 0 0 0 0 0 0 0 0 0 0.25 0"/>
<feBlend mode="normal" in2="effect6_dropShadow_2212_139" result="effect7_dropShadow_2212_139"/>
<feColorMatrix in="SourceAlpha" type="matrix" values="0 0 0 0 0 0 0 0 0 0 0 0 0 0 0 0 0 0 127 0" result="hardAlpha"/>
<feOffset dy="4"/>
<feGaussianBlur stdDeviation="2"/>
<feComposite in2="hardAlpha" operator="out"/>
<feColorMatrix type="matrix" values="0 0 0 0 0 0 0 0 0 0 0 0 0 0 0 0 0 0 0.25 0"/>
<feBlend mode="normal" in2="effect7_dropShadow_2212_139" result="effect8_dropShadow_2212_139"/>
<feBlend mode="normal" in="SourceGraphic" in2="effect8_dropShadow_2212_139" result="shape"/>
</filter>
<linearGradient id="paint0_linear_2212_139" x1="67.3986" y1="0.0801385" x2="67.0023" y2="94.9195" gradientUnits="userSpaceOnUse">
<stop/>
<stop offset="1" stop-color="#7A7A7A"/>
</linearGradient>
<linearGradient id="paint1_linear_2212_139" x1="23.178" y1="0.0801385" x2="23.5743" y2="94.9195" gradientUnits="userSpaceOnUse">
<stop/>
<stop offset="1" stop-color="#7A7A7A"/>
</linearGradient>
</defs>
</svg>
