<svg width="58" height="74" viewBox="0 0 58 74" fill="none" xmlns="http://www.w3.org/2000/svg">
<path d="M5.91467 38.2881L7.95989 38.7807L11.5855 40.9484L15.7689 43.8057L18.3719 47.8454L20.2312 51.7866L21.3468 56.7131L22.1835 70.3101" stroke="black" stroke-width="5"/>
<path d="M51.7463 38.2881L49.7011 38.7807L46.0755 40.9484L41.8921 43.8057L39.2891 47.8454L37.4298 51.7866L36.3142 56.7131L35.4775 70.3101" stroke="black" stroke-width="5"/>
<path d="M5.91467 35.1353H7.58804L8.05286 29.8147L9.91215 27.0559L13.0729 24.4941H19.3945L23.1131 29.8147H29.5277" stroke="black" stroke-width="5"/>
<path d="M52.7688 35.1353H51.0954L50.6306 29.8147L48.7713 27.0559L45.6105 24.4941H39.2889L35.5703 29.8147H29.1558" stroke="black" stroke-width="5"/>
<path d="M28.9699 71L22.0905 70.5074L16.3267 66.5662L11.3066 61.7382L7.95991 54.4471L6.28655 46.8603L5.72876 34.9382L2.93982 32.6721L3.59057 25.2824L4.70615 21.9324L8.70363 13.6559L12.7011 9.32059L16.8845 6.36471L23.0202 4L23.6709 5.57647H28.9699" stroke="black" stroke-width="5"/>
<path d="M28.9699 71L35.8493 70.5074L41.6131 66.5662L46.6332 61.7382L49.9799 54.4471L51.6533 46.8603L52.2111 34.9382L55 32.6721L54.3492 25.2824L53.2337 21.9324L49.2362 13.6559L45.2387 9.32059L41.0553 6.36471L34.9196 4L34.2689 5.57647H28.9699" stroke="black" stroke-width="5"/>
<g filter="url(#filter0_dddddddd_2219_39)">
<path d="M29.6693 14.3901L30.1336 15.9875L31.6362 15.9875L30.4206 16.9747L30.8849 18.5721L29.6693 17.5849L28.4536 18.5721L28.918 16.9747L27.7023 15.9875L29.2049 15.9875L29.6693 14.3901Z" fill="#FF0000"/>
<mask id="path-8-inside-1_2219_39" fill="white">
<path d="M35.0795 13.8892C33.9288 11.6482 29.9768 8.92627 29.9768 8.92627L32.8109 16.0051L33.1043 23.4984L35.0485 23.5065L35.8265 16.0177C35.8265 16.0177 35.804 15.3003 35.0795 13.8892Z"/>
</mask>
<path d="M35.0795 13.8892C33.9288 11.6482 29.9768 8.92627 29.9768 8.92627L32.8109 16.0051L33.1043 23.4984L35.0485 23.5065L35.8265 16.0177C35.8265 16.0177 35.804 15.3003 35.0795 13.8892Z" fill="#FF0000"/>
<path d="M29.9768 8.92627L52.644 -24.0093L-56.3323 -99.0668L-7.1554 23.7627L29.9768 8.92627ZM35.0795 13.8892L-0.500051 32.1328L-0.500049 32.1328L35.0795 13.8892ZM35.8265 16.0177L75.6123 20.1894L75.8914 17.5027L75.8067 14.8024L35.8265 16.0177ZM35.0485 23.5065L34.9197 63.5063L71.0963 63.6579L74.8343 27.6782L35.0485 23.5065ZM33.1043 23.4984L-6.865 25.0242L-5.36529 63.3375L32.9755 63.4982L33.1043 23.4984ZM32.8109 16.0051L72.7802 14.4793L72.5101 7.58023L69.9431 1.16864L32.8109 16.0051ZM29.9768 8.92627C7.30957 41.8618 7.30557 41.8591 7.30159 41.8563C7.30028 41.8554 7.29631 41.8527 7.29368 41.8509C7.28844 41.8473 7.28323 41.8437 7.27807 41.8401C7.26775 41.833 7.25761 41.826 7.24763 41.8191C7.22769 41.8053 7.20843 41.7919 7.18984 41.779C7.15265 41.7532 7.11803 41.729 7.0858 41.7064C7.0215 41.6614 6.96597 41.622 6.91806 41.5878C6.8239 41.5206 6.75172 41.4677 6.69383 41.4244C6.60594 41.3588 6.45496 41.2441 6.2308 41.0539C6.06832 40.916 5.43374 40.3746 4.56741 39.4465C3.98795 38.8256 1.64 36.3007 -0.500051 32.1328L70.659 -4.3544C66.0901 -13.2527 59.1057 -18.9489 57.9625 -19.9192C56.6065 -21.07 55.3956 -22.0052 54.5307 -22.6512C54.0844 -22.9847 53.6945 -23.2677 53.3797 -23.4926C53.2215 -23.6056 53.0799 -23.7056 52.9571 -23.7917C52.8957 -23.8347 52.8387 -23.8745 52.7865 -23.9107C52.7604 -23.9289 52.7355 -23.9462 52.7117 -23.9626C52.6998 -23.9708 52.6883 -23.9788 52.677 -23.9866C52.6713 -23.9905 52.6658 -23.9943 52.6603 -23.9981C52.6575 -24 52.6535 -24.0028 52.6521 -24.0037C52.6481 -24.0065 52.644 -24.0093 29.9768 8.92627ZM-0.500049 32.1328C-1.32451 30.5271 -2.19759 28.441 -2.88765 25.8891C-3.23154 24.6173 -3.52427 23.2506 -3.74321 21.7948C-3.85249 21.0682 -3.94278 20.3233 -4.01195 19.5612C-4.04652 19.1803 -4.07576 18.7957 -4.09945 18.4074C-4.1113 18.2133 -4.12175 18.0184 -4.1308 17.8226C-4.13532 17.7247 -4.13948 17.6267 -4.1433 17.5284C-4.1452 17.4793 -4.14702 17.4301 -4.14874 17.3809C-4.14961 17.3562 -4.15045 17.3316 -4.15127 17.307C-4.15167 17.2947 -4.15228 17.2762 -4.15248 17.27C-4.15307 17.2515 -4.15365 17.233 35.8265 16.0177C75.8067 14.8024 75.8062 14.784 75.8056 14.7655C75.8054 14.7593 75.8048 14.7408 75.8043 14.7284C75.8035 14.7038 75.8027 14.6791 75.8018 14.6544C75.8001 14.605 75.7983 14.5555 75.7963 14.506C75.7925 14.4071 75.7883 14.3079 75.7837 14.2087C75.7745 14.0101 75.7639 13.811 75.7517 13.6113C75.7273 13.2118 75.6969 12.8104 75.6603 12.4071C75.587 11.6003 75.4893 10.7883 75.3666 9.97237C75.1208 8.33795 74.7772 6.70372 74.3371 5.07622C73.4546 1.81276 72.208 -1.33761 70.659 -4.3544L-0.500049 32.1328ZM-3.95922 11.8461L-4.73724 19.3349L74.8343 27.6782L75.6123 20.1894L-3.95922 11.8461ZM35.1773 -16.4933L33.233 -16.5014L32.9755 63.4982L34.9197 63.5063L35.1773 -16.4933ZM73.0735 21.9725L72.7802 14.4793L-7.15831 17.5309L-6.865 25.0242L73.0735 21.9725ZM69.9431 1.16864L67.109 -5.9102L-7.1554 23.7627L-4.32126 30.8416L69.9431 1.16864Z" fill="url(#paint0_linear_2219_39)" mask="url(#path-8-inside-1_2219_39)"/>
<mask id="path-10-inside-2_2219_39" fill="white">
<path d="M23.9759 13.8892C25.1266 11.6482 29.0786 8.92627 29.0786 8.92627L26.2445 16.0051L25.9512 23.4984L24.0069 23.5065L23.2289 16.0177C23.2289 16.0177 23.2514 15.3003 23.9759 13.8892Z"/>
</mask>
<path d="M23.9759 13.8892C25.1266 11.6482 29.0786 8.92627 29.0786 8.92627L26.2445 16.0051L25.9512 23.4984L24.0069 23.5065L23.2289 16.0177C23.2289 16.0177 23.2514 15.3003 23.9759 13.8892Z" fill="#FF0000"/>
<path d="M29.0786 8.92627L6.41137 -24.0093L115.388 -99.0668L66.2108 23.7627L29.0786 8.92627ZM23.9759 13.8892L59.5555 32.1328L59.5555 32.1328L23.9759 13.8892ZM23.2289 16.0177L-16.5569 20.1894L-16.836 17.5027L-16.7513 14.8024L23.2289 16.0177ZM24.0069 23.5065L24.1357 63.5063L-12.0409 63.6579L-15.7789 27.6782L24.0069 23.5065ZM25.9512 23.4984L65.9204 25.0242L64.4207 63.3375L26.0799 63.4982L25.9512 23.4984ZM26.2445 16.0051L-13.7248 14.4793L-13.4547 7.58023L-10.8877 1.16864L26.2445 16.0051ZM29.0786 8.92627C51.7459 41.8618 51.7498 41.8591 51.7538 41.8563C51.7551 41.8554 51.7591 41.8527 51.7617 41.8509C51.767 41.8473 51.7722 41.8437 51.7773 41.8401C51.7877 41.833 51.7978 41.826 51.8078 41.8191C51.8277 41.8053 51.847 41.7919 51.8656 41.779C51.9028 41.7532 51.9374 41.729 51.9696 41.7064C52.0339 41.6614 52.0895 41.622 52.1374 41.5878C52.2315 41.5206 52.3037 41.4677 52.3616 41.4244C52.4495 41.3588 52.6005 41.2441 52.8246 41.0539C52.9871 40.916 53.6217 40.3746 54.488 39.4465C55.0675 38.8256 57.4154 36.3007 59.5555 32.1328L-11.6036 -4.3544C-7.03466 -13.2527 -0.0502626 -18.9489 1.09292 -19.9192C2.44892 -21.07 3.65982 -22.0052 4.52468 -22.6512C4.97104 -22.9847 5.36097 -23.2677 5.67574 -23.4926C5.83396 -23.6056 5.97553 -23.7056 6.09828 -23.7917C6.15973 -23.8347 6.21669 -23.8745 6.2689 -23.9107C6.29501 -23.9289 6.31996 -23.9462 6.3437 -23.9626C6.35558 -23.9708 6.36716 -23.9788 6.37844 -23.9866C6.38408 -23.9905 6.38964 -23.9943 6.39513 -23.9981C6.39787 -24 6.40194 -24.0028 6.40331 -24.0037C6.40735 -24.0065 6.41137 -24.0093 29.0786 8.92627ZM59.5555 32.1328C60.3799 30.5271 61.253 28.441 61.9431 25.8891C62.287 24.6173 62.5797 23.2506 62.7986 21.7948C62.9079 21.0682 62.9982 20.3233 63.0674 19.5612C63.1019 19.1803 63.1312 18.7957 63.1549 18.4074C63.1667 18.2133 63.1772 18.0184 63.1862 17.8226C63.1907 17.7247 63.1949 17.6267 63.1987 17.5284C63.2006 17.4793 63.2024 17.4301 63.2042 17.3809C63.205 17.3562 63.2059 17.3316 63.2067 17.307C63.2071 17.2947 63.2077 17.2762 63.2079 17.27C63.2085 17.2515 63.2091 17.233 23.2289 16.0177C-16.7513 14.8024 -16.7507 14.784 -16.7501 14.7655C-16.7499 14.7593 -16.7493 14.7408 -16.7489 14.7284C-16.7481 14.7038 -16.7473 14.6791 -16.7464 14.6544C-16.7447 14.605 -16.7428 14.5555 -16.7409 14.506C-16.7371 14.4071 -16.7329 14.3079 -16.7283 14.2087C-16.7191 14.0101 -16.7084 13.811 -16.6963 13.6113C-16.6719 13.2118 -16.6414 12.8104 -16.6049 12.4071C-16.5316 11.6003 -16.4339 10.7883 -16.3112 9.97237C-16.0654 8.33795 -15.7218 6.70372 -15.2817 5.07622C-14.3992 1.81276 -13.1526 -1.33761 -11.6036 -4.3544L59.5555 32.1328ZM63.0146 11.8461L63.7927 19.3349L-15.7789 27.6782L-16.5569 20.1894L63.0146 11.8461ZM23.8781 -16.4933L25.8224 -16.5014L26.0799 63.4982L24.1357 63.5063L23.8781 -16.4933ZM-14.0181 21.9725L-13.7248 14.4793L66.2137 17.5309L65.9204 25.0242L-14.0181 21.9725ZM-10.8877 1.16864L-8.05359 -5.9102L66.2108 23.7627L63.3767 30.8416L-10.8877 1.16864Z" fill="url(#paint1_linear_2219_39)" mask="url(#path-10-inside-2_2219_39)"/>
</g>
<g filter="url(#filter1_dddd_2219_39)">
<rect x="14.0956" y="32.7705" width="30.8643" height="2.95588" rx="1.47794" fill="#B30000"/>
<rect x="14.5956" y="33.2705" width="29.8643" height="1.95588" rx="0.977941" stroke="black"/>
</g>
<rect x="23.0201" y="54.25" width="11.7135" height="0.788235" fill="white"/>
<rect x="23.9498" y="56.2207" width="10.0402" height="0.788235" fill="white"/>
<rect x="24.8795" y="58.1914" width="8.36681" height="0.788235" fill="white"/>
<rect x="25.2513" y="60.1621" width="7.43717" height="0.788235" fill="white"/>
<rect x="25.995" y="62.1323" width="5.94974" height="0.788235" fill="white"/>
<defs>
<filter id="filter0_dddddddd_2219_39" x="19.2289" y="8.92627" width="20.5978" height="22.5801" filterUnits="userSpaceOnUse" color-interpolation-filters="sRGB">
<feFlood flood-opacity="0" result="BackgroundImageFix"/>
<feColorMatrix in="SourceAlpha" type="matrix" values="0 0 0 0 0 0 0 0 0 0 0 0 0 0 0 0 0 0 127 0" result="hardAlpha"/>
<feOffset dy="4"/>
<feGaussianBlur stdDeviation="2"/>
<feComposite in2="hardAlpha" operator="out"/>
<feColorMatrix type="matrix" values="0 0 0 0 0 0 0 0 0 0 0 0 0 0 0 0 0 0 0.25 0"/>
<feBlend mode="normal" in2="BackgroundImageFix" result="effect1_dropShadow_2219_39"/>
<feColorMatrix in="SourceAlpha" type="matrix" values="0 0 0 0 0 0 0 0 0 0 0 0 0 0 0 0 0 0 127 0" result="hardAlpha"/>
<feOffset dy="4"/>
<feGaussianBlur stdDeviation="2"/>
<feComposite in2="hardAlpha" operator="out"/>
<feColorMatrix type="matrix" values="0 0 0 0 0 0 0 0 0 0 0 0 0 0 0 0 0 0 0.25 0"/>
<feBlend mode="normal" in2="effect1_dropShadow_2219_39" result="effect2_dropShadow_2219_39"/>
<feColorMatrix in="SourceAlpha" type="matrix" values="0 0 0 0 0 0 0 0 0 0 0 0 0 0 0 0 0 0 127 0" result="hardAlpha"/>
<feOffset dy="4"/>
<feGaussianBlur stdDeviation="2"/>
<feComposite in2="hardAlpha" operator="out"/>
<feColorMatrix type="matrix" values="0 0 0 0 0 0 0 0 0 0 0 0 0 0 0 0 0 0 0.25 0"/>
<feBlend mode="normal" in2="effect2_dropShadow_2219_39" result="effect3_dropShadow_2219_39"/>
<feColorMatrix in="SourceAlpha" type="matrix" values="0 0 0 0 0 0 0 0 0 0 0 0 0 0 0 0 0 0 127 0" result="hardAlpha"/>
<feOffset dy="4"/>
<feGaussianBlur stdDeviation="2"/>
<feComposite in2="hardAlpha" operator="out"/>
<feColorMatrix type="matrix" values="0 0 0 0 0 0 0 0 0 0 0 0 0 0 0 0 0 0 0.25 0"/>
<feBlend mode="normal" in2="effect3_dropShadow_2219_39" result="effect4_dropShadow_2219_39"/>
<feColorMatrix in="SourceAlpha" type="matrix" values="0 0 0 0 0 0 0 0 0 0 0 0 0 0 0 0 0 0 127 0" result="hardAlpha"/>
<feOffset dy="4"/>
<feGaussianBlur stdDeviation="2"/>
<feComposite in2="hardAlpha" operator="out"/>
<feColorMatrix type="matrix" values="0 0 0 0 0 0 0 0 0 0 0 0 0 0 0 0 0 0 0.25 0"/>
<feBlend mode="normal" in2="effect4_dropShadow_2219_39" result="effect5_dropShadow_2219_39"/>
<feColorMatrix in="SourceAlpha" type="matrix" values="0 0 0 0 0 0 0 0 0 0 0 0 0 0 0 0 0 0 127 0" result="hardAlpha"/>
<feOffset dy="4"/>
<feGaussianBlur stdDeviation="2"/>
<feComposite in2="hardAlpha" operator="out"/>
<feColorMatrix type="matrix" values="0 0 0 0 0 0 0 0 0 0 0 0 0 0 0 0 0 0 0.25 0"/>
<feBlend mode="normal" in2="effect5_dropShadow_2219_39" result="effect6_dropShadow_2219_39"/>
<feColorMatrix in="SourceAlpha" type="matrix" values="0 0 0 0 0 0 0 0 0 0 0 0 0 0 0 0 0 0 127 0" result="hardAlpha"/>
<feOffset dy="4"/>
<feGaussianBlur stdDeviation="2"/>
<feComposite in2="hardAlpha" operator="out"/>
<feColorMatrix type="matrix" values="0 0 0 0 0 0 0 0 0 0 0 0 0 0 0 0 0 0 0.25 0"/>
<feBlend mode="normal" in2="effect6_dropShadow_2219_39" result="effect7_dropShadow_2219_39"/>
<feColorMatrix in="SourceAlpha" type="matrix" values="0 0 0 0 0 0 0 0 0 0 0 0 0 0 0 0 0 0 127 0" result="hardAlpha"/>
<feOffset dy="4"/>
<feGaussianBlur stdDeviation="2"/>
<feComposite in2="hardAlpha" operator="out"/>
<feColorMatrix type="matrix" values="0 0 0 0 0 0 0 0 0 0 0 0 0 0 0 0 0 0 0.25 0"/>
<feBlend mode="normal" in2="effect7_dropShadow_2219_39" result="effect8_dropShadow_2219_39"/>
<feBlend mode="normal" in="SourceGraphic" in2="effect8_dropShadow_2219_39" result="shape"/>
</filter>
<filter id="filter1_dddd_2219_39" x="10.0956" y="32.7705" width="38.8641" height="10.9561" filterUnits="userSpaceOnUse" color-interpolation-filters="sRGB">
<feFlood flood-opacity="0" result="BackgroundImageFix"/>
<feColorMatrix in="SourceAlpha" type="matrix" values="0 0 0 0 0 0 0 0 0 0 0 0 0 0 0 0 0 0 127 0" result="hardAlpha"/>
<feOffset dy="4"/>
<feGaussianBlur stdDeviation="2"/>
<feComposite in2="hardAlpha" operator="out"/>
<feColorMatrix type="matrix" values="0 0 0 0 0 0 0 0 0 0 0 0 0 0 0 0 0 0 0.25 0"/>
<feBlend mode="normal" in2="BackgroundImageFix" result="effect1_dropShadow_2219_39"/>
<feColorMatrix in="SourceAlpha" type="matrix" values="0 0 0 0 0 0 0 0 0 0 0 0 0 0 0 0 0 0 127 0" result="hardAlpha"/>
<feOffset dy="4"/>
<feGaussianBlur stdDeviation="2"/>
<feComposite in2="hardAlpha" operator="out"/>
<feColorMatrix type="matrix" values="0 0 0 0 0 0 0 0 0 0 0 0 0 0 0 0 0 0 0.25 0"/>
<feBlend mode="normal" in2="effect1_dropShadow_2219_39" result="effect2_dropShadow_2219_39"/>
<feColorMatrix in="SourceAlpha" type="matrix" values="0 0 0 0 0 0 0 0 0 0 0 0 0 0 0 0 0 0 127 0" result="hardAlpha"/>
<feOffset dy="4"/>
<feGaussianBlur stdDeviation="2"/>
<feComposite in2="hardAlpha" operator="out"/>
<feColorMatrix type="matrix" values="0 0 0 0 0 0 0 0 0 0 0 0 0 0 0 0 0 0 0.25 0"/>
<feBlend mode="normal" in2="effect2_dropShadow_2219_39" result="effect3_dropShadow_2219_39"/>
<feColorMatrix in="SourceAlpha" type="matrix" values="0 0 0 0 0 0 0 0 0 0 0 0 0 0 0 0 0 0 127 0" result="hardAlpha"/>
<feOffset dy="4"/>
<feGaussianBlur stdDeviation="2"/>
<feComposite in2="hardAlpha" operator="out"/>
<feColorMatrix type="matrix" values="0 0 0 0 0 0 0 0 0 0 0 0 0 0 0 0 0 0 0.25 0"/>
<feBlend mode="normal" in2="effect3_dropShadow_2219_39" result="effect4_dropShadow_2219_39"/>
<feBlend mode="normal" in="SourceGraphic" in2="effect4_dropShadow_2219_39" result="shape"/>
</filter>
<linearGradient id="paint0_linear_2219_39" x1="32.9131" y1="8.93857" x2="32.8521" y2="23.4973" gradientUnits="userSpaceOnUse">
<stop/>
<stop offset="1" stop-color="#7A7A7A"/>
</linearGradient>
<linearGradient id="paint1_linear_2219_39" x1="26.1424" y1="8.93857" x2="26.2034" y2="23.4973" gradientUnits="userSpaceOnUse">
<stop/>
<stop offset="1" stop-color="#7A7A7A"/>
</linearGradient>
</defs>
</svg>
